<?xml version="1.0" encoding="UTF-8" standalone="no"?><!DOCTYPE svg PUBLIC "-//W3C//DTD SVG 1.1//EN" "http://www.w3.org/Graphics/SVG/1.1/DTD/svg11.dtd"><svg width="100%" height="100%" viewBox="0 0 1000 1000" version="1.1" xmlns="http://www.w3.org/2000/svg" xmlns:xlink="http://www.w3.org/1999/xlink" xml:space="preserve" xmlns:serif="http://www.serif.com/" style="fill-rule:evenodd;clip-rule:evenodd;stroke-linejoin:round;stroke-miterlimit:2;"><path d="M458.911,380.509l321.709,-160.854l-0,-87.214c-0,0 -174.428,-87.214 -174.428,-87.214l-379.851,189.926l-0,639.569l174.428,87.214c-0,-0 58.142,-29.071 58.142,-29.071l0,-290.714l203.499,-101.749l0,-116.286c0,0 -58.142,-29.071 -58.142,-29.071l-145.357,72.678l0,-87.214Z" style="fill:url(#_Linear1);"/><g><g><path d="M606.192,45.227l-379.851,189.926l174.428,87.214l379.851,-189.926l-174.428,-87.214Z" style="fill:#8a8a8a;fill-opacity:0.19;"/><path d="M400.769,322.367l-174.428,-87.214l-0,639.569l174.428,87.214l-0,-639.569Z" style="fill-opacity:0.19;"/><path d="M604.268,395.045l-145.357,72.678l0,58.143l203.499,-101.75l-58.142,-29.071Z" style="fill:#353535;fill-opacity:0.19;"/><path d="M400.769,322.367c-0,-0 -0,639.569 -0,639.569l58.142,-29.071l0,-290.714l203.499,-101.749l0,-116.286l-203.499,101.75l0,-145.357l321.709,-160.854l-0,-87.214l-379.851,189.926Z" style="fill:#fff;fill-opacity:0.19;"/></g></g><defs><linearGradient id="_Linear1" x1="0" y1="0" x2="1" y2="0" gradientUnits="userSpaceOnUse" gradientTransform="matrix(6.2061e-14,1013.53,-1676.26,1.02641e-13,500,0)"><stop offset="0" style="stop-color:#132e5d;stop-opacity:1"/><stop offset="0.46" style="stop-color:#523947;stop-opacity:1"/><stop offset="1" style="stop-color:#f15511;stop-opacity:1"/></linearGradient></defs></svg>